<?xml version="1.0" standalone="no"?>
<!DOCTYPE svg PUBLIC "-//W3C//DTD SVG 20010904//EN"
 "http://www.w3.org/TR/2001/REC-SVG-20010904/DTD/svg10.dtd">
<svg version="1.0" xmlns="http://www.w3.org/2000/svg"
 width="1280.000000pt" height="726.000000pt" viewBox="0 0 1280.000000 726.000000"
 preserveAspectRatio="xMidYMid meet">
<metadata>
Created by potrace 1.15, written by Peter Selinger 2001-2017
</metadata>
<g transform="translate(0.000000,726.000000) scale(0.100000,-0.100000)"
fill="#000000" stroke="none">
<path d="M9324 7240 c-40 -20 -192 -170 -378 -373 -200 -219 -199 -217 -104
-299 33 -29 97 -84 141 -123 135 -119 191 -162 216 -168 14 -3 101 -1 193 5
256 17 355 -7 465 -109 75 -70 320 -349 359 -409 90 -139 60 -270 -95 -416
-141 -133 -270 -210 -516 -308 -356 -142 -1981 -768 -2997 -1154 -1041 -396
-1242 -472 -2368 -896 -206 -77 -390 -142 -409 -143 -29 -2 -38 3 -55 30 -12
17 -47 71 -78 120 -204 315 -537 564 -926 693 -231 76 -445 106 -707 97 -258
-9 -486 -57 -729 -153 -539 -215 -990 -653 -1195 -1160 -90 -223 -128 -402
-138 -639 -12 -314 46 -586 183 -855 86 -167 176 -292 309 -426 280 -281 584
-438 1015 -521 119 -23 161 -26 350 -27 274 0 441 26 679 109 560 195 1011
589 1257 1100 109 227 163 424 185 678 13 149 3 340 -26 479 -8 38 -15 75 -15
82 0 7 48 31 108 54 183 71 406 152 410 148 10 -10 33 -209 38 -336 12 -261
-30 -562 -111 -808 -41 -124 -143 -340 -224 -472 -28 -47 -51 -88 -51 -93 0
-4 30 -5 68 -2 37 3 182 12 322 20 1159 70 4505 307 4519 320 2 2 -31 64 -73
138 -164 286 -233 585 -223 957 15 521 174 934 507 1315 118 135 311 302 351
305 8 0 163 -236 180 -274 10 -21 2 -32 -108 -142 -200 -201 -314 -359 -419
-579 -229 -484 -225 -1049 13 -1495 113 -212 309 -435 503 -572 169 -120 429
-236 633 -283 283 -65 629 -60 918 14 639 162 1161 615 1385 1204 67 174 102
348 111 547 29 657 -309 1226 -902 1523 -510 254 -1141 262 -1664 21 -41 -19
-77 -34 -81 -34 -16 0 -210 309 -210 334 0 9 128 77 240 127 227 102 493 180
898 264 221 46 291 68 344 108 67 50 83 93 82 212 -1 80 -6 117 -29 185 -109
335 -418 723 -976 1225 -391 352 -942 815 -1013 850 -60 30 -108 32 -162 5z
m1905 -3715 c240 -39 444 -144 624 -323 289 -284 388 -712 257 -1104 -145
-434 -519 -758 -995 -864 -98 -21 -343 -30 -445 -15 -173 26 -350 93 -493 188
-96 64 -234 197 -297 289 -258 373 -250 877 19 1267 54 78 189 219 204 214 11
-3 252 -372 449 -687 194 -309 222 -348 272 -371 81 -37 186 -17 250 47 64 64
75 165 27 249 -26 47 -551 872 -605 952 -14 21 -26 43 -26 49 0 24 182 86 317
109 109 18 329 18 442 0z m-8982 -375 c355 -47 646 -211 845 -474 l61 -81 -59
-26 c-73 -33 -454 -176 -938 -353 -204 -75 -390 -148 -415 -164 -68 -41 -93
-91 -89 -174 5 -107 54 -157 159 -165 52 -4 78 -1 134 20 39 13 353 129 699
256 346 127 633 231 637 231 30 0 45 -316 20 -435 -97 -471 -430 -860 -893
-1044 -428 -170 -921 -110 -1271 153 -89 67 -219 200 -274 281 -194 286 -246
668 -137 1001 122 375 430 703 815 868 224 97 483 135 706 106z"/>
<path d="M6380 6129 c-543 -70 -933 -387 -1155 -941 l-39 -96 -136 -7 c-314
-17 -846 23 -1255 95 -276 49 -482 165 -611 346 -81 113 -126 251 -140 427 -4
48 -10 87 -14 87 -4 0 -70 -7 -146 -15 -529 -56 -1197 -43 -1575 31 -106 21
-234 23 -274 3 -68 -33 -96 -130 -56 -195 10 -17 142 -140 292 -275 865 -770
1039 -927 1090 -976 83 -81 54 -69 1784 -693 939 -339 918 -332 954 -325 40 8
9 -4 1281 480 1797 685 2411 923 2468 958 69 42 144 131 174 207 19 47 23 74
23 181 l0 125 -39 80 c-50 100 -137 189 -230 233 -73 35 -105 41 -566 96 -162
19 -573 69 -914 110 -636 77 -752 85 -916 64z"/>
</g>
</svg>
