<svg width="35" height="20" viewBox="0 0 35 20" fill="none" xmlns="http://www.w3.org/2000/svg">
<path d="M27.2407 13.1682C29.0369 13.1682 30.4927 14.6234 30.4927 16.4199C30.4927 18.2164 29.037 19.6716 27.2407 19.6716C25.4438 19.6716 23.9885 18.2165 23.9885 16.4199C23.9885 14.6233 25.4438 13.1682 27.2407 13.1682ZM27.2407 17.8335C28.0215 17.8335 28.6541 17.2009 28.6541 16.4199C28.6541 15.6387 28.0215 15.0063 27.2407 15.0063C26.4598 15.0063 25.8266 15.6387 25.8266 16.4199C25.8266 17.2009 26.4598 17.8335 27.2407 17.8335Z" fill="#000000"/>
<path d="M8.14921 13.1682C9.9455 13.1682 11.4011 14.6234 11.4011 16.4199C11.4011 18.2164 9.9456 19.6716 8.14921 19.6716C6.35233 19.6716 4.89701 18.2165 4.89701 16.4199C4.89701 14.6233 6.35233 13.1682 8.14921 13.1682ZM8.14921 17.8335C8.93001 17.8335 9.56279 17.2009 9.56279 16.4199C9.56279 15.6387 8.93001 15.0063 8.14921 15.0063C7.36822 15.0063 6.73504 15.6387 6.73504 16.4199C6.73504 17.2009 7.36822 17.8335 8.14921 17.8335Z" fill="#000000"/>
<path d="M1.94282 0H31.1135C32.1822 0 33.2315 0.856796 33.4453 1.90395L34.6113 6.16026C34.8251 7.20741 35 8.93858 35 10.0074V14.4767C35 15.5454 34.1255 16.4198 33.0568 16.4198H31.0755C31.0755 14.3056 29.3551 12.5853 27.2406 12.5853C25.1259 12.5853 23.4054 14.3054 23.4054 16.4198H11.9844C11.9844 14.3056 10.2639 12.5853 8.14952 12.5853C6.03464 12.5853 4.31426 14.3054 4.31426 16.4198H1.94332C0.874397 16.4198 0.00012207 15.5456 0.00012207 14.4767V1.94309C-0.000377655 0.874373 0.8741 0 1.94282 0ZM26.9248 8.19893H31.4534L30.7357 6.49922C30.6105 6.2026 30.7494 5.86064 31.0459 5.73541C31.3427 5.61017 31.6846 5.74919 31.8096 6.04571L32.6995 8.15329C33.3002 7.99539 33.6658 7.43282 33.5421 6.76608L32.4974 2.59745C32.3511 1.80937 31.5756 1.1645 30.774 1.1645H26.9247L26.9248 8.19893ZM18.2777 8.19893H25.7589V1.1645H18.2777V8.19893ZM9.63061 8.19893H17.1118V1.1645H9.63061V8.19893ZM1.19129 6.74161C1.19129 7.54317 1.84705 8.19903 2.64881 8.19903H8.46471V1.1646H2.64881C1.84715 1.1646 1.19129 1.82045 1.19129 2.62202V6.74161Z" fill="#000000"/>
</svg>
