<svg width="38" height="14" viewBox="0 0 38 14" fill="none" xmlns="http://www.w3.org/2000/svg">
<path d="M31.3669 7.78668C32.9504 7.78668 34.2344 9.07029 34.2344 10.6542C34.2344 10.7763 34.2244 10.8964 34.209 11.0143C34.0313 12.4277 32.8283 13.5209 31.3673 13.5209C29.8667 13.5209 28.6365 12.3674 28.5117 10.8984C28.5052 10.8181 28.4998 10.7363 28.4998 10.6538C28.4994 9.07029 29.783 7.78668 31.3669 7.78668ZM32.8022 9.57367L32.2178 10.1585C32.2631 10.2364 32.2988 10.3205 32.3218 10.4103H33.1458C33.1036 10.0986 32.9842 9.81365 32.8022 9.57367ZM33.1497 10.9068H32.3191C32.2957 10.9951 32.2612 11.0788 32.2151 11.1556L32.801 11.7412C32.9826 11.5031 33.1047 11.2182 33.1497 10.9068ZM31.6149 12.4354C31.9256 12.392 32.2078 12.2703 32.4466 12.0902L31.8638 11.5069C31.787 11.5519 31.7029 11.5849 31.6149 11.6079V12.4354ZM31.6149 9.70038C31.7052 9.72419 31.7897 9.75951 31.8684 9.80597L32.4524 9.22196C32.2124 9.03957 31.9275 8.919 31.6149 8.87562V9.70038ZM31.1185 8.87485C30.8059 8.91824 30.5206 9.03957 30.281 9.22157L30.8647 9.80559C30.943 9.75913 31.0282 9.7238 31.1181 9.7L31.1185 8.87485ZM31.1185 12.4346V11.6083C31.0302 11.5849 30.9468 11.5523 30.87 11.5069L30.2868 12.0902C30.5256 12.2703 30.8082 12.3912 31.1185 12.4346ZM29.9312 11.7439L30.5191 11.1552C30.473 11.0781 30.4358 10.9955 30.4124 10.9072H29.5884C29.6321 11.2174 29.7492 11.5046 29.9312 11.7439ZM30.4112 10.4103C30.4346 10.3205 30.47 10.2364 30.5153 10.1585L29.9301 9.57367C29.7492 9.81365 29.6298 10.0986 29.5868 10.4107H30.4112V10.4103Z" fill="#000000"/>
<path d="M7.55733 7.78668C9.14082 7.78668 10.4248 9.07029 10.4248 10.6542C10.4248 10.7763 10.4148 10.8964 10.3995 11.0143C10.2217 12.4277 9.01872 13.5209 7.5581 13.5209C6.05755 13.5209 4.82732 12.3674 4.70215 10.8984C4.69562 10.8181 4.69024 10.7363 4.69024 10.6538C4.68948 9.07029 5.97347 7.78668 7.55733 7.78668ZM8.99261 9.57367L8.40859 10.1585C8.4539 10.2364 8.48961 10.3205 8.51265 10.4103H9.33664C9.29402 10.0986 9.17461 9.81365 8.99261 9.57367ZM9.33971 10.9068H8.50919C8.48577 10.9951 8.45121 11.0788 8.40514 11.1556L8.99068 11.7412C9.17307 11.5031 9.29556 11.2182 9.33971 10.9068ZM7.80538 12.4354C8.11601 12.392 8.39822 12.2703 8.63705 12.0902L8.05419 11.5069C7.97739 11.5519 7.8933 11.5849 7.80538 11.6079V12.4354ZM7.80538 9.70038C7.89561 9.72419 7.98008 9.75951 8.0588 9.80597L8.64281 9.22196C8.40283 9.03957 8.11831 8.919 7.80538 8.87562V9.70038ZM7.30852 8.87485C6.99597 8.91824 6.71068 9.03957 6.47109 9.22157L7.0551 9.80559C7.13343 9.75913 7.21867 9.72303 7.30852 9.7V8.87485ZM7.30852 12.4346V11.6083C7.22021 11.5849 7.13689 11.5523 7.06009 11.5069L6.47685 12.0902C6.71567 12.2703 6.99866 12.3912 7.30852 12.4346ZM6.12168 11.7439L6.70953 11.156C6.66346 11.0784 6.62583 10.9963 6.60279 10.9076H5.77879C5.82257 11.2174 5.93929 11.5046 6.12168 11.7439ZM6.60163 10.4103C6.62506 10.3205 6.66 10.2364 6.70569 10.1585L6.12091 9.57367C5.93967 9.81365 5.82065 10.0986 5.77726 10.4107H6.60163V10.4103Z" fill="#000000"/>
<path d="M0.671944 6.3023V4.18049C0.671944 3.83914 0.919987 3.55002 1.25711 3.49741C2.06613 3.3707 3.50026 3.13149 4.14455 2.93298C5.06838 2.64807 8.63774 1.13678 9.87374 0.853025C11.1101 0.569272 16.6846 -0.945865 22.0236 0.904861C22.9271 1.2178 26.9914 3.16067 29.3812 4.17089C30.085 4.18625 37.0514 5.63842 37.4223 6.63366C37.7932 7.62929 37.9095 8.11232 37.9779 8.36497C38.0462 8.61763 37.9779 9.82674 37.4603 10.6688C36.9327 10.9671 35.9171 11.1676 34.743 11.3019C34.7564 11.2301 34.771 11.1595 34.7802 11.0869C34.8006 10.9318 34.8102 10.7901 34.8102 10.655C34.8102 8.75624 33.2658 7.21115 31.3667 7.21115C29.4676 7.21115 27.9233 8.75585 27.9233 10.655C27.9233 10.7525 27.9298 10.8492 27.9371 10.9445C27.9552 11.1576 27.9936 11.3645 28.0492 11.5638C28.0466 11.5638 28.04 11.5638 28.04 11.5638L10.9473 11.2198C10.955 11.1756 10.965 11.1318 10.9707 11.0869C10.9911 10.9326 11.0007 10.7905 11.0007 10.655C11.0007 8.75624 9.45637 7.21153 7.55726 7.21153C5.65815 7.21153 4.11345 8.75585 4.11345 10.655C4.11345 10.6623 4.11422 10.6684 4.1146 10.6753L4.04165 10.6692L1.11927 10.1189C1.11927 10.1189 0 9.52302 0 7.88348C-0.000385284 6.78994 0.671944 6.3023 0.671944 6.3023ZM17.6276 4.29069L24.0111 4.48613C23.8936 3.52967 24.4599 3.31503 24.4599 3.31503C21.9223 1.0116 16.8078 0.933658 16.8078 0.933658L17.6276 4.29069ZM10.4635 3.99849L16.2806 4.19393L15.7534 0.934041C12.747 0.894877 11.0295 1.55837 11.0295 1.55837L10.1705 2.9445L10.4635 3.99849ZM7.18404 3.97852H8.80477L10.4251 1.75343C9.20947 2.23723 8.2365 2.71412 7.65709 3.01553C7.30537 3.1983 7.11339 3.5888 7.18404 3.97852Z" fill="#000000"/>
</svg>
