<?xml version="1.0" encoding="utf-8"?>
<!-- Generator: Adobe Illustrator 23.0.5, SVG Export Plug-In . SVG Version: 6.00 Build 0)  -->
<svg version="1.1" id="Слой_1" xmlns="http://www.w3.org/2000/svg" x="0px" y="0px"
     viewBox="0 0 595.3 292" style="enable-background:new 0 0 595.3 292;" xml:space="preserve">
<style type="text/css">
	.st0{fill-rule:evenodd;clip-rule:evenodd;}
</style>
<g id="Слой_x0020_1">
	<path class="st0" d="M164.5,91.6c-3.3,0.8-3.7,1.3-4.2,5.6c-0.2,1.4-0.5,2.9-0.7,3.3c-0.2,0.4-4.5,2.4-9.6,4.4
		C114,119,87.3,130,75.5,135.6c-7.6,3.6-10.3,4.2-19.6,4.8c-4,0.2-7.9,0.7-8.8,0.9c-4.7,1.5-16.8,2.7-28.8,2.9l-5.3,0.1l-2.2,3.7
		c-2.2,3.6-2.2,3.7-1.3,4.7c1.6,1.7,1.6,3.6,0.2,8.2c-1.4,4.6-1.6,8.3-0.9,17.2c0.2,3.1,0.2,4.1-0.3,4.1c-1.3,0-3.9,2.6-5.1,5.3
		c-2.3,4.9-3.4,16-2.2,21.7c0.6,2.7,0.6,2.9,0.1,7.4C1,219.2,2,227.8,2.6,228.1c0.1,0,1.3,0.9,2.8,1.9c3.4,2.3,5.7,4.8,6.1,6.7
		c0.8,3.7,7.8,7.2,16.5,8.4c4.8,0.7,45.1,4.5,50.6,4.8l1.5,0.1l0.2-7.4c0.3-10.7,2.3-18.3,6.8-26c13.1-22.3,42.6-31.3,65.3-20
		c14.7,7.4,24.6,19.7,27.8,34.5c1,4.9,1.3,17,0.6,24.1l-0.4,3.8h139.6c132.8,0,139.6,0,139.3-0.8c-1.5-4-2.6-15.1-2.1-21.4
		c1.3-14.9,8.2-26.4,21.3-35.3c18.6-12.7,39.4-13.1,57.8-1.1c11.1,7.3,18.5,18.2,21.4,31.9c0.8,3.9,0.7,15.9-0.2,20
		c-0.4,1.8-0.7,3.3-0.6,3.4c0.3,0.4,18-0.9,22.2-1.6c8.4-1.3,11.8-3,14.1-7.1c1.1-1.9,1.3-2.7,1.3-5.9c0-2-0.4-5.4-0.9-7.6
		c-0.8-3.7-0.8-4.1-0.1-8.8c1.4-9.3,1.9-14.2,1.9-23.1c0-8.2,0-9.1-1.1-12.1c-2.1-6.3-4.8-8.8-13.2-12.7
		c-10.3-4.8-29.4-10.2-54.3-15.3c-24.3-5-70.9-9.8-95.5-9.8h-10.6l-11-6.5c-37.8-22.2-74.1-41.1-86.1-44.9
		c-23.2-7.3-74.3-9.1-134.5-4.7l-8.7,0.7l-2.2-1.4C174.1,92.1,168,90.7,164.5,91.6L164.5,91.6z M253.5,106c0.6,2.1,2.7,14.2,4.1,24
		c1.5,10.5,3.4,25.1,3.3,25.2c-0.3,0.3-77.8-1.9-95.5-2.7c-16.6-0.7-21.6-2.6-26.6-10c-2.9-4.2-4-10.5-2.7-15.2
		c0.6-1.9,2.6-3.4,8.9-6.9c17.2-9.2,37.2-13.4,75.2-15.8c11.4-0.7,13.5-0.7,23.7-0.7l9,0L253.5,106L253.5,106L253.5,106z
		 M283.6,105.6c17.8,1.7,33.3,4,43.4,6.5c9.8,2.4,21,7.6,33.5,15.4c6.6,4.1,17.6,12,17.7,12.6c0,0.2-0.7,0.4-1.5,0.4
		c-2.2,0-5.3,1.7-6.5,3.6c-1.1,1.8-1.4,5.3-0.7,8.8l0.4,2h-42h-42l-8.2-25.1l-8.1-25.1h2.2C272.9,104.6,278.3,105,283.6,105.6
		L283.6,105.6L283.6,105.6z"/>
	<path class="st0" d="M122.3,194.6c-20,3.8-36,20.5-39,40.7c-0.8,5.4-0.3,13.6,1.1,19.1c5.3,20.3,23.1,34.9,44,36.1
		c23.6,1.3,44.6-14.6,50-37.8c1.3-5.4,1.2-16.2-0.2-21.7c-4.4-17.6-17.8-31.2-35.3-35.7C138.1,194,127.4,193.7,122.3,194.6
		L122.3,194.6z M139.9,209c3.9,1,9.7,4,13,6.6c5.4,4.4,9.8,11.3,11.7,18.3c1.1,4,1.1,12.1,0,16.5c-2.7,11-11.3,20.4-22,24.1
		c-24.7,8.7-49.9-12.9-45.1-38.5c1.4-7.1,4.4-12.7,9.6-18c5.2-5.1,11-8.3,17.9-9.6C128.9,207.8,135.9,208,139.9,209L139.9,209z"/>
	<path class="st0" d="M136.3,220.5c0.1,4.2,0.3,7.8,0.6,8c0.8,0.8,5-2.7,9.3-7.7l2.4-2.7l-2.2-1.4c-2.4-1.5-6.1-3-8.6-3.5l-1.6-0.3
		L136.3,220.5L136.3,220.5z"/>
	<path class="st0" d="M121.1,214.4c-2.9,1-7.8,3.8-7.6,4.4c0.1,0.6,11,10,11.6,10c0.3,0,0.7-0.3,0.8-0.7c0.4-0.9,0.4-5.9,0-10.8
		C125.5,212.8,125.5,212.8,121.1,214.4L121.1,214.4z"/>
	<path class="st0" d="M149.8,230.4c-2.7,3-4.9,5.7-5,6.1c-0.3,1.2,2.1,1.6,7.3,1.3c2.7-0.1,5.6-0.4,6.5-0.5c1.5-0.2,1.6-0.3,1.3-2
		c-0.3-2-3-7.8-4.3-9.3l-0.9-1.1L149.8,230.4L149.8,230.4z"/>
	<path class="st0" d="M105.7,227.9c-1.4,2-3.2,6.2-3.6,8.7l-0.3,1.5h7.2c7.7,0,9.3-0.4,8.4-2c-0.6-1.1-9.5-10-10-10
		C107.3,226,106.5,226.8,105.7,227.9L105.7,227.9L105.7,227.9z"/>
	<path class="st0" d="M130.2,230.5c-1.7,1.6,0,4,2,3c1.2-0.7,1.2-2.6,0-3.3C131.1,229.6,131,229.6,130.2,230.5z"/>
	<path class="st0" d="M128.5,238.3c-2.7,1.5-3.2,5.2-1,7.3c2,2,4.7,2,6.7,0c2-2,1.9-4.7,0-6.7C132.6,237.5,130.5,237.2,128.5,238.3
		L128.5,238.3z"/>
	<path class="st0" d="M119.7,240.6c-0.9,1.1-0.4,2.8,0.8,3c2,0.3,3.1-1.5,1.7-2.9C121.3,239.8,120.4,239.8,119.7,240.6z"/>
	<path class="st0" d="M140.2,241.2c-1.3,0.9-1.3,1.7-0.1,2.7c1.2,1.1,2.8,0.3,2.8-1.3C142.9,241,141.5,240.2,140.2,241.2z"/>
	<path class="st0" d="M105,247.3c-3.6,0.3-3.5,0.2-2.7,3c0.7,2.6,2.8,6.8,4.3,8.7l0.8,1.1l4.8-5.7c2.7-3.1,4.8-6,4.9-6.4
		c0-0.7-0.7-0.7-4.8-0.8C109.5,247.1,106.3,247.2,105,247.3C105,247.3,105,247.3,105,247.3z"/>
	<path class="st0" d="M147.8,247.8c-2,0.2-2.8,0.5-2.9,1c-0.1,0.7,9.8,10.6,10.6,10.6c1,0,4-6.6,4.9-10.6l0.3-1.5l-5.1,0.1
		C152.9,247.5,149.3,247.7,147.8,247.8L147.8,247.8L147.8,247.8z"/>
	<path class="st0" d="M129.7,250.9c-0.9,0.8-0.9,0.9-0.3,2.1c0.3,0.5,1,0.9,1.6,0.9c0.9,0,2.1-1.1,2.1-2c0-0.5-1.5-1.7-2.1-1.7
		C130.7,250.2,130.1,250.5,129.7,250.9z"/>
	<path class="st0" d="M121,258.9c-4,4.2-6.5,7-6.5,7.5c0,1.2,8.3,4.7,11,4.7h1.3l-0.3-6.7c-0.4-7.7-0.6-8.7-1.6-8.7
		C124.4,255.8,122.7,257.2,121,258.9L121,258.9L121,258.9z"/>
	<path class="st0" d="M137.1,256.2c-0.3,0.5-1.1,7.8-1.3,12c-0.1,2.8-0.1,2.9,0.9,2.9c3.7,0,12.2-3.2,11.5-4.3c-0.2-0.3-2.5-3-5-5.9
		C138.9,256.1,137.7,255.2,137.1,256.2z"/>
	<path class="st0" d="M499.3,194.6c-14.8,2.7-27.8,12.4-34.6,25.8c-10.4,20.5-4.6,46.3,13.4,59.9c5.2,3.9,8.7,5.8,14.5,7.7
		c12.7,4.2,25.3,3.3,37.3-2.8c25.7-13.1,34.2-45.7,18.2-69.8C537.7,199.7,517.9,191.2,499.3,194.6L499.3,194.6z M517.2,209.3
		c16.2,4.6,26.9,20.6,24.7,37c-3.1,23.6-27.7,37-49.1,26.7c-11.1-5.4-18.4-16.4-19.2-28.8c-0.9-15.6,8.9-29.8,24-34.6
		C503.4,207.6,511.1,207.5,517.2,209.3L517.2,209.3L517.2,209.3z"/>
	<path class="st0" d="M513,220.5c0.1,4.2,0.4,7.8,0.7,8c0.6,0.7,2.5-0.8,7.2-5.7l4.4-4.5l-1.1-0.8c-2.3-1.9-8.8-4.5-10.9-4.5
		C512.8,213,512.7,214.5,513,220.5L513,220.5L513,220.5z"/>
	<path class="st0" d="M498.4,214.1c-2.3,0.7-6.2,2.7-7.6,3.8l-1.1,0.9l5.6,5c3.1,2.8,6,5,6.3,5c1.1,0,1.3-1.8,0.9-8.7
		C502.3,212.6,502.4,212.8,498.4,214.1z"/>
	<path class="st0" d="M526.4,230.5c-2.7,3-5,5.9-5,6.3c0,0.5,0.5,0.8,1.8,1c2,0.3,12.9-0.3,13.4-0.8c0.7-0.7-2.4-8.5-4.4-11
		l-0.9-1.1L526.4,230.5L526.4,230.5L526.4,230.5z"/>
	<path class="st0" d="M482.5,227.7c-1.8,2.9-3.3,6.2-3.6,8.6l-0.3,1.8h7.1c4,0,7.5-0.2,8-0.5c0.8-0.5,0.8-0.6,0.2-1.8
		c-0.4-0.7-2.7-3.3-5.3-5.8l-4.6-4.6L482.5,227.7L482.5,227.7z"/>
	<path class="st0" d="M507,230.2c-1.1,0.7-1.1,2.6,0.1,3.2c2,1.1,3.7-1.3,2-3C508.3,229.6,508,229.6,507,230.2L507,230.2z"/>
	<path class="st0" d="M505.2,238.2c-2.3,1.3-3.1,4.7-1.6,6.8c0.4,0.6,1.5,1.3,2.3,1.7c1.3,0.6,1.8,0.6,3.2,0c4.6-1.9,4-8.4-0.9-8.9
		C507.1,237.7,505.9,237.9,505.2,238.2z"/>
	<path class="st0" d="M496.4,240.6c-0.9,1.1-0.4,2.8,0.8,3c2,0.3,3.1-1.5,1.7-2.9C498,239.8,497.1,239.8,496.4,240.6z"/>
	<path class="st0" d="M516.6,241.2c-0.4,0.4-0.7,1-0.7,1.3c0,0.6,1.2,2.1,1.7,2.1c0.9,0,2-1.2,2-2.1c0-0.7-0.4-1.3-0.9-1.6
		C517.6,240.3,517.5,240.3,516.6,241.2z"/>
	<path class="st0" d="M481.2,247.4c-2.8,0.3-2.8,0.3-2.7,1.7c0.4,3.2,4.8,11.5,5.7,10.6c2.7-2.8,9.8-11.6,9.6-12
		C493.7,247.1,485.7,246.9,481.2,247.4L481.2,247.4z"/>
	<path class="st0" d="M524.6,247.7c-3.2,0.2-3.7,0.9-2.2,2.8c1.1,1.4,9.3,9,9.8,9c0.1,0,0.9-1.1,1.7-2.5c1.3-2.2,2.4-5.2,3.1-8.4
		l0.3-1.3l-5,0.1C529.5,247.5,526.1,247.6,524.6,247.7L524.6,247.7L524.6,247.7z"/>
	<path class="st0" d="M506.1,251.1c-0.7,1.4,0.2,2.9,1.8,2.7c1-0.1,1.3-0.4,1.4-1.5C509.5,250.2,507.1,249.3,506.1,251.1z"/>
	<path class="st0" d="M495.9,260.7c-2.6,2.7-4.7,5.3-4.7,5.6c0,1.3,8,4.8,11,4.8h1.2l-0.3-5.7c-0.5-8.3-0.7-9.6-1.7-9.6
		C501,255.8,498.5,258,495.9,260.7L495.9,260.7z"/>
	<path class="st0" d="M513.8,256.2c-0.3,0.6-1.1,6.7-1.3,11.3c-0.2,3.6-0.2,3.6,0.9,3.6c2.1,0,6-1,9-2.4l3-1.3l-0.9-1.1
		c-3-3.8-9.2-10.6-9.7-10.6C514.3,255.8,514,256,513.8,256.2L513.8,256.2L513.8,256.2z"/>
	<path class="st0" d="M44.2,125.6c0,2.4,2.6,2.9,4.8,2.9h10.3c3.2,0,6.8-1.2,6.8-2.9v-21.5c-3.6,0.7-7.2,1.1-11,1.1
		c-3.8,0-7.4-0.4-11-1.1L44.2,125.6L44.2,125.6z"/>
	<path class="st0" d="M88.1,6.6c0-2.9-2.4-5.3-5.3-5.3h-6.9c-2.9,0-5.3,2.4-5.3,5.3v34.2l17.6,0C88.1,40.8,88.1,6.6,88.1,6.6z"/>
	<path class="st0" d="M39.8,6.6c0-2.9-2.4-5.3-5.3-5.3h-6.9c-2.9,0-5.3,2.4-5.3,5.3v34.2l17.6,0C39.8,40.8,39.8,6.6,39.8,6.6z"/>
	<path class="st0" d="M3.4,49.5C5.2,70.8,20,88.3,39.8,94.2c1.4,0.4,2.9,0.8,4.4,1.1c3.3,0.7,6.7,1,10.2,1c4,0,7.9-0.5,11.7-1.4
		c1.5-0.4,3-0.8,4.4-1.2c19-6.3,33.2-23.5,34.9-44.2H88.1H70.5H39.8H22.2C22.2,49.5,3.4,49.5,3.4,49.5z"/>
</g>
</svg>
