<?xml version="1.0" encoding="utf-8"?>
<!-- Generator: Adobe Illustrator 23.0.5, SVG Export Plug-In . SVG Version: 6.00 Build 0)  -->
<svg version="1.1" id="Слой_1" xmlns="http://www.w3.org/2000/svg" x="0px" y="0px"
     viewBox="0 0 496.1 249.4" style="enable-background:new 0 0 496.1 249.4;" xml:space="preserve">
<path d="M451.8-1.9H233.2H14.5v67.8v67.8l214.7-0.4c118.2-0.2,216-0.6,217.5-0.8c1.9-0.4,2.7-1.1,3.2-2.7c0.3-1.3,0.8-31.4,1.2-67
	L451.8-1.9z"/>
<path d="M496.1,153.4h-34.9c-35.6,0-42.7,0.4-42.7,2.4c0,0.6,3.4,5.6,7.5,11c4.1,5.5,7.5,10.5,7.5,11.2s1.5,2.2,3.2,3.3
	c3.1,2,4.9,2.1,27.1,2.1c25.6,0,29-0.3,29.9-2.9c0.4-0.9,1-7.3,1.5-14.4L496.1,153.4z"/>
<path d="M368.9,153.5c-23.6-0.2-41,12.8-47,35.4c-8,29.8,21.5,61.8,52.3,56.7c17.8-3,33-16.1,38.4-33.2c7.5-24-4.7-49.6-27.1-56.5
	c-3-0.9-6-1.8-6.5-2C378.4,153.7,373.9,153.5,368.9,153.5z"/>
<path d="M183.1,154c-8.9,0.8-8.9,0.8-2.6,10.5c2.1,3.2,5,8.8,6.6,12.4l2.8,6.5H247h57.1l2.8-7.3c1.6-3.9,4.9-10.4,7.5-14.2
	c2.5-3.9,4.7-7.3,4.9-7.8C319.7,153.2,193.9,153.1,183.1,154z"/>
<path d="M124.5,153.5c-14.9-0.1-23.8,3.5-32.9,13.5c-10.5,11.5-15.8,27.1-13.3,39.6c4.5,22.4,24.6,39.1,47.2,39.1
	c21.7,0,39.7-14.6,45.5-36.8c5.1-19.7-4.1-41.2-21.1-49.6c-3.5-1.8-8.8-3.8-11.7-4.5C135.4,154.1,129.2,153.5,124.5,153.5z"/>
<path d="M77.4,153.4H46H14.5v15v15h23.4h23.4l2.8-7.2c1.6-4,5.2-10.7,8.1-15L77.4,153.4z"/>
</svg>
